<?xml version="1.0" encoding="iso-8859-1"?>
<!DOCTYPE svg PUBLIC "-//W3C//DTD SVG 1.1//EN" "http://www.w3.org/Graphics/SVG/1.1/DTD/svg11.dtd">
<svg version="1.1" id="Capa_1" xmlns="http://www.w3.org/2000/svg" xmlns:xlink="http://www.w3.org/1999/xlink" x="0px" y="0px"
     width="79.532px" height="79.532px" viewBox="0 0 79.532 79.532" style="enable-background:new 0 0 79.532 79.532;"
     xml:space="preserve">
<g>
    <path fill="#fff" d="M68.275,47.308c-11.495,13.794-23.426,5.96-27.31,2.754c3.004-3.277,4.37-5.063,9.585-9.356
        c5.391,2.201,15.021-1.976,15.021-1.976c-6.483,1.696-11.434,0.735-13.194,0.27c0.373-0.298,6.769-4.927,8.705-7.604
        c5.354,0.166,9.776-4.433,9.776-4.433c-0.15-0.122-2.854,1.952-7.975,2.201c5.303-7.788,5.06-14.952,5.06-14.952
        s-1.958,6.538-6.939,13.711c-1.02-5.09,0.28-8.554,0.13-8.671c0,0-3.464,5.717-1.869,10.973c-2.724,3.112-7.017,5.8-8.596,7.003
        c-0.119-0.324-1.771-5.752-0.166-13.776c0,0-4.365,10.087-1.636,15.32c-3.346,2.57-4.236,3.202-9.823,9.447
        c-12.65-9.468-1.786-26.403,7.689-30.354C56.475,13.802,60.539,14.618,69.466,0C79.242,14.486,77.643,36.061,68.275,47.308z
         M14.278,45.837c5.753,2.631,9.745,6.203,12.487,9.621c0.031-0.104,0.075-0.182,0.106-0.301C32.083,36.413,3.445,39.02,3.445,39.02
        s3.956,6.087,6.162,12.726c2.55,7.694,12.974,14.09,16.717,4.955C23.622,53.061,19.756,49.078,14.278,45.837z M40.966,50.052
        c-0.041-0.031-1.979-1.781-1.952-1.812c-4.909,5.406-6.825,10.025-7.291,15.907c-0.743-2.024-2.227-5.261-4.963-8.688
        c-0.127,0.45-0.28,0.854-0.44,1.242c2.91,3.915,4.037,9.259,4.699,11.009c0,4.888,0.533,7.332,0.963,11.407
        c0,0,2.63,1.554,3.363-1.346C33.869,75.321,32.412,58.43,40.966,50.052z"/>
</g>
</svg>
