<?xml version="1.0" encoding="iso-8859-1"?>
<!DOCTYPE svg PUBLIC "-//W3C//DTD SVG 1.1//EN" "http://www.w3.org/Graphics/SVG/1.1/DTD/svg11.dtd">
<svg version="1.1" id="Capa_1" xmlns="http://www.w3.org/2000/svg" xmlns:xlink="http://www.w3.org/1999/xlink" x="0px" y="0px"
     viewBox="0 0 206.8 206.8" style="enable-background:new 0 0 206.8 206.8;" xml:space="preserve">
<path fill="#fff" d="M204.604,2.197c-2.337-2.336-5.928-2.867-8.839-1.311c-2.284,1.221-52.49,28.189-88.624,58.119
    c-2.85-0.132-8.932-0.36-16.823-0.36c-20.738,0-49.229,1.57-67.188,9.054c-8.578,3.574-11.464,9.792-12.374,14.379
    c-0.853,4.297-0.249,9.037,1.276,13.905l-9.836,9.836c-2.929,2.93-2.929,7.678,0,10.607c1.465,1.464,3.385,2.196,5.304,2.196
    s3.839-0.732,5.304-2.196l5.971-5.971c1.664,2.784,3.476,5.508,5.338,8.117l-11.802,11.802c-2.929,2.929-2.929,7.677,0.001,10.606
    c1.464,1.464,3.384,2.196,5.303,2.196s3.839-0.732,5.304-2.197l10.538-10.538c1.431,1.666,2.783,3.184,4.013,4.531
    c-1.97,2.687-3.125,4.337-3.342,4.649c-2.075,2.98-1.716,7.021,0.853,9.589L57.59,171.82c1.451,1.45,3.372,2.196,5.306,2.196
    c1.489,0,2.986-0.442,4.283-1.345c0.312-0.217,1.97-1.377,4.667-3.355c1.332,1.208,2.861,2.559,4.544,3.997l-10.57,10.569
    c-2.93,2.93-2.93,7.678-0.001,10.606c1.465,1.465,3.384,2.197,5.304,2.197c1.919,0,3.839-0.732,5.303-2.196l11.851-11.851
    c2.607,1.86,5.332,3.67,8.113,5.342l-6.016,6.016c-2.929,2.93-2.929,7.678,0,10.607c1.465,1.464,3.385,2.196,5.304,2.196
    s3.839-0.732,5.304-2.196l9.826-9.826c3.306,1.054,6.539,1.679,9.586,1.679c8.629,0,15.272-4.541,18.708-12.786
    c10.801-25.923,9.167-74.035,8.695-84.014c29.93-36.134,56.897-86.337,58.117-88.621C207.472,8.122,206.94,4.532,204.604,2.197z
     M174.149,43.259l-56.336,56.336c-1.465,1.464-3.385,2.196-5.304,2.196s-3.839-0.732-5.304-2.196c-2.929-2.93-2.929-7.678,0-10.607
    l56.336-56.336c2.93-2.928,7.678-2.928,10.607,0C177.077,35.581,177.077,40.329,174.149,43.259z"/>
</svg>
